<svg xmlns="http://www.w3.org/2000/svg" width="1600" height="920" viewBox="0 0 1600 920" fill="none">
  <rect width="1600" height="920" rx="34" fill="#EFF4EE"/>
  <rect x="42" y="42" width="1516" height="836" rx="28" fill="#FFFFFF" stroke="#CBD9D3"/>

  <rect x="88" y="92" width="62" height="62" rx="16" fill="#0D766D"/>
  <text x="119" y="131" fill="#E9FBF6" font-family="IBM Plex Mono, monospace" font-size="30" font-weight="700" text-anchor="middle">KZ</text>
  <text x="176" y="120" fill="#64857D" font-family="IBM Plex Mono, monospace" font-size="16" letter-spacing="4">KONTUR ZNANIY</text>
  <text x="176" y="160" fill="#1C342F" font-family="Manrope, sans-serif" font-size="58" font-weight="800">Контур знаний</text>

  <rect x="88" y="210" width="360" height="620" rx="20" fill="#F6FBF9" stroke="#C3D8CF"/>
  <text x="116" y="254" fill="#5D746E" font-family="IBM Plex Mono, monospace" font-size="18" letter-spacing="3">РАЗДЕЛЫ</text>
  <rect x="116" y="278" width="304" height="54" rx="12" fill="#FFFFFF" stroke="#C7D8D2"/>
  <text x="130" y="312" fill="#7A948E" font-family="Manrope, sans-serif" font-size="23">Найти раздел или тему...</text>

  <rect x="116" y="352" width="304" height="166" rx="14" fill="#FFFFFF" stroke="#CFE0D9"/>
  <text x="144" y="392" fill="#1F4942" font-family="Manrope, sans-serif" font-size="30" font-weight="700">Linux</text>
  <text x="144" y="432" fill="#4E675F" font-family="Manrope, sans-serif" font-size="22">systemd и сервисы</text>
  <text x="144" y="466" fill="#4E675F" font-family="Manrope, sans-serif" font-size="22">Shell и bash</text>

  <rect x="492" y="210" width="1024" height="188" rx="20" fill="#F3FAF7" stroke="#BCD5CD"/>
  <text x="526" y="252" fill="#5D746E" font-family="IBM Plex Mono, monospace" font-size="18" letter-spacing="3">ПАНЕЛЬ ЗНАНИЙ</text>
  <text x="526" y="320" fill="#1A2523" font-family="Manrope, sans-serif" font-size="64" font-weight="800">Навигация слева, заметки по центру</text>
  <text x="526" y="364" fill="#5E716C" font-family="Manrope, sans-serif" font-size="32">быстро, спокойно, без боли.</text>

  <rect x="492" y="426" width="1024" height="198" rx="20" fill="#F4FBF8" stroke="#C0D7CF"/>
  <text x="526" y="468" fill="#5D746E" font-family="IBM Plex Mono, monospace" font-size="18" letter-spacing="3">ОПЕРАТИВНЫЙ ПУЛЬТ</text>
  <rect x="526" y="494" width="228" height="104" rx="12" fill="#FFFFFF" stroke="#C7DBD3"/>
  <rect x="776" y="494" width="228" height="104" rx="12" fill="#FFFFFF" stroke="#C7DBD3"/>
  <rect x="1026" y="494" width="228" height="104" rx="12" fill="#FFFFFF" stroke="#C7DBD3"/>
  <rect x="1276" y="494" width="206" height="104" rx="12" fill="#FFFFFF" stroke="#C7DBD3"/>

  <text x="552" y="548" fill="#1A3F38" font-family="Manrope, sans-serif" font-size="28" font-weight="700">Linux</text>
  <text x="802" y="548" fill="#1A3F38" font-family="Manrope, sans-serif" font-size="28" font-weight="700">Docker</text>
  <text x="1052" y="548" fill="#1A3F38" font-family="Manrope, sans-serif" font-size="28" font-weight="700">K8s</text>
  <text x="1300" y="548" fill="#1A3F38" font-family="Manrope, sans-serif" font-size="28" font-weight="700">CI/CD</text>

  <rect x="492" y="650" width="1024" height="180" rx="20" fill="#FFFFFF" stroke="#CFDDD7"/>
  <text x="526" y="692" fill="#5D746E" font-family="IBM Plex Mono, monospace" font-size="18" letter-spacing="3">ПОСЛЕДНИЕ СТАТЬИ</text>
  <text x="526" y="744" fill="#1A2523" font-family="Manrope, sans-serif" font-size="42" font-weight="800">Shell и bash</text>
  <text x="526" y="792" fill="#3A4E49" font-family="Manrope, sans-serif" font-size="30">Автор: soul4bit</text>
</svg>
